<svg xmlns="http://www.w3.org/2000/svg" width="120" height="55.679" viewBox="0 0 120 55.679"><defs><style>.a{fill:#003087;}.b{fill:#fff;}.c{fill:#00468b;}</style></defs><g transform="translate(46.753 0.921)"><path class="a" d="M67.9,1.3h3.967a4.124,4.124,0,0,1,1.346.213,3.409,3.409,0,0,1,1.133.567A2.3,2.3,0,0,1,75.055,3a3.337,3.337,0,0,1,.283,1.2,3.224,3.224,0,0,1-.354,1.417,2.663,2.663,0,0,1-.992.992h0a1.689,1.689,0,0,1,.779.425,2.445,2.445,0,0,1,.567.638,2.619,2.619,0,0,1,.354.779,3.556,3.556,0,0,1,.142.85,2.809,2.809,0,0,1-.283,1.417,2.884,2.884,0,0,1-.85.992,3.758,3.758,0,0,1-1.2.567,12.722,12.722,0,0,1-1.558.142H67.9Zm3.967,4.534a1.335,1.335,0,0,0,.567-.142,1.482,1.482,0,0,0,.425-.283,1.483,1.483,0,0,0,.283-.425,1.381,1.381,0,0,0,.071-.567,1.56,1.56,0,0,0-.071-.567,1.482,1.482,0,0,0-.283-.425,1.482,1.482,0,0,0-.425-.283,1.572,1.572,0,0,0-.638-.071H69.883V5.834Zm.213,4.817a2.1,2.1,0,0,0,.708-.142,1.27,1.27,0,0,0,.5-.354,1.142,1.142,0,0,0,.283-.5,2.068,2.068,0,0,0,.142-.638,2.068,2.068,0,0,0-.142-.638,3.08,3.08,0,0,0-.283-.5,1.271,1.271,0,0,0-.5-.354,2.1,2.1,0,0,0-.708-.142H69.954V10.58h2.125Z" transform="translate(-66.554 -1.3)"/><path class="a" d="M80.8,9.579a4.294,4.294,0,0,1,1.275-3.046,4.715,4.715,0,0,1,1.417-.85,5.242,5.242,0,0,1,3.4,0,5.791,5.791,0,0,1,1.417.85,3.054,3.054,0,0,1,.921,1.346,4.559,4.559,0,0,1,.354,1.7,4.294,4.294,0,0,1-1.275,3.046,4.716,4.716,0,0,1-1.417.85,5.242,5.242,0,0,1-3.4,0,5.791,5.791,0,0,1-1.417-.85,3.055,3.055,0,0,1-.921-1.346A4.559,4.559,0,0,1,80.8,9.579Zm1.983,0a2.263,2.263,0,0,0,.213.992,2.925,2.925,0,0,0,.5.779,2.925,2.925,0,0,0,.779.5,2.1,2.1,0,0,0,1.842,0,2.925,2.925,0,0,0,.779-.5,2.925,2.925,0,0,0,.5-.779,2.42,2.42,0,0,0,0-1.983,2.925,2.925,0,0,0-.5-.779,2.925,2.925,0,0,0-.779-.5,2.1,2.1,0,0,0-1.842,0,2.925,2.925,0,0,0-.779.5,2.925,2.925,0,0,0-.5.779A2.5,2.5,0,0,0,82.783,9.579Z" transform="translate(-70.316 -2.496)"/><path class="a" d="M95.35,11.267c.213.142.354.283.567.425a2.121,2.121,0,0,0,.708.283,3.556,3.556,0,0,0,.85.142.9.9,0,0,0,.425-.071c.142-.071.213-.071.354-.142s.142-.142.213-.213a.426.426,0,0,0,.071-.283.541.541,0,0,0-.142-.354,1.482,1.482,0,0,0-.425-.283,5.619,5.619,0,0,0-.638-.283c-.213-.071-.5-.213-.708-.283-.213-.142-.5-.213-.708-.354a3.894,3.894,0,0,1-.638-.5,1.673,1.673,0,0,1-.425-.638,1.534,1.534,0,0,1-.142-.85,2.263,2.263,0,0,1,.213-.992,1.55,1.55,0,0,1,.638-.708,2.116,2.116,0,0,1,.992-.425,5.189,5.189,0,0,1,2.409,0,5.906,5.906,0,0,1,.85.283,2.472,2.472,0,0,1,.638.425l-.708,1.488c-.142-.142-.354-.213-.5-.354a3.293,3.293,0,0,0-.638-.213,2.642,2.642,0,0,0-.85-.142A.531.531,0,0,0,97.4,7.3c-.142,0-.213.071-.354.142l-.213.213a.531.531,0,0,0-.071.354.541.541,0,0,0,.142.354,2.2,2.2,0,0,0,.425.283,5.616,5.616,0,0,0,.638.283c.213.071.5.213.708.283a3.309,3.309,0,0,1,.708.354,3.892,3.892,0,0,1,.638.5,1.673,1.673,0,0,1,.425.638,1.534,1.534,0,0,1,.142.85,1.961,1.961,0,0,1-.213.921,3.145,3.145,0,0,1-.567.779,3.817,3.817,0,0,1-.921.5,3.431,3.431,0,0,1-1.275.213,4.125,4.125,0,0,1-1.346-.213c-.354-.142-.708-.283-.992-.425a3.145,3.145,0,0,1-.779-.567Z" transform="translate(-74.311 -2.554)"/><path class="a" d="M105.363,6.525H104.3V4.967h1.063V2.7h1.913V4.967h1.771V6.525h-1.771V9.642a2.187,2.187,0,0,0,.142.779,1.2,1.2,0,0,0,.425.425c.142.071.354.142.5.213.213,0,.354.071.5.071h.354v1.7h-.567a2.185,2.185,0,0,1-.638-.071,2.517,2.517,0,0,1-.708-.142c-.213-.071-.5-.213-.708-.283a2.3,2.3,0,0,1-.638-.567,2.128,2.128,0,0,1-.425-.779,2.936,2.936,0,0,1-.142-1.133V6.525Z" transform="translate(-77.169 -1.708)"/><path class="a" d="M112.7,9.579a4.294,4.294,0,0,1,1.275-3.046,4.716,4.716,0,0,1,1.417-.85,5.242,5.242,0,0,1,3.4,0,5.791,5.791,0,0,1,1.417.85,3.055,3.055,0,0,1,.921,1.346,4.559,4.559,0,0,1,.354,1.7,4.294,4.294,0,0,1-1.275,3.046,4.715,4.715,0,0,1-1.417.85,5.242,5.242,0,0,1-3.4,0,5.791,5.791,0,0,1-1.417-.85,3.055,3.055,0,0,1-.921-1.346A4.559,4.559,0,0,1,112.7,9.579Zm2.054,0a2.263,2.263,0,0,0,.213.992,2.925,2.925,0,0,0,.5.779,2.925,2.925,0,0,0,.779.5,2.1,2.1,0,0,0,1.842,0,2.925,2.925,0,0,0,.779-.5,2.926,2.926,0,0,0,.5-.779,2.421,2.421,0,0,0,0-1.983,2.926,2.926,0,0,0-.5-.779,2.925,2.925,0,0,0-.779-.5,2.1,2.1,0,0,0-1.842,0,2.925,2.925,0,0,0-.779.5,2.925,2.925,0,0,0-.5.779A2.5,2.5,0,0,0,114.754,9.579Z" transform="translate(-79.619 -2.496)"/><path class="a" d="M127.3,5.583h1.913V7h0a6.532,6.532,0,0,1,.354-.567,4.28,4.28,0,0,1,.567-.567,7.728,7.728,0,0,1,.779-.425,2.419,2.419,0,0,1,1.063-.142,6.239,6.239,0,0,1,1.2.142,1.806,1.806,0,0,1,.85.567,4.014,4.014,0,0,1,.567.921,3.833,3.833,0,0,1,.213,1.346v5.313h-1.984V8.913a1.759,1.759,0,0,0-.071-.638c-.071-.142-.071-.354-.212-.5a.854.854,0,0,0-.354-.354.866.866,0,0,0-.638-.213,2.1,2.1,0,0,0-.708.142,2.872,2.872,0,0,0-.638.354,1.656,1.656,0,0,0-.5.5,2.514,2.514,0,0,0-.283.638c-.071.142-.071.354-.142.5v4.25H127.3v-8Z" transform="translate(-83.876 -2.466)"/><path class="a" d="M66.8,26.767a6.136,6.136,0,0,1,.425-2.267,5.232,5.232,0,0,1,1.2-1.771,6.034,6.034,0,0,1,1.771-1.2,5.873,5.873,0,0,1,2.267-.425,3.742,3.742,0,0,1,.921.071c.283.071.567.071.85.142s.5.142.708.213a4.206,4.206,0,0,1,.567.283,5.864,5.864,0,0,1,1.063.779l-.992,1.488a5.908,5.908,0,0,0-.85-.567c-.283-.142-.567-.283-.921-.425a3.309,3.309,0,0,0-1.2-.213,3.6,3.6,0,0,0-1.558.283,3.41,3.41,0,0,0-1.133.85,3.01,3.01,0,0,0-.708,1.2,4.631,4.631,0,0,0-.283,1.488,3.484,3.484,0,0,0,.283,1.488,3.293,3.293,0,0,0,1.913,2.125,3.606,3.606,0,0,0,1.558.354,2.41,2.41,0,0,0,.708-.071c.213-.071.425-.071.638-.142s.354-.142.567-.213a1.775,1.775,0,0,0,.5-.283,4.548,4.548,0,0,0,.921-.708l1.063,1.417a7.152,7.152,0,0,1-1.133.921,5.138,5.138,0,0,1-.638.354,2.538,2.538,0,0,1-.779.283l-.85.213a4.356,4.356,0,0,1-.992.071,6.432,6.432,0,0,1-1.629-.213,6.56,6.56,0,0,1-1.417-.567A4.625,4.625,0,0,1,68.5,30.8a4.321,4.321,0,0,1-.85-1.133,8.442,8.442,0,0,1-.567-1.417A3.484,3.484,0,0,1,66.8,26.767Z" transform="translate(-66.233 -7.074)"/><path class="a" d="M83.2,21.3h1.983v4.534h0a1.485,1.485,0,0,1,.425-.567,1.909,1.909,0,0,1,.567-.5,2.619,2.619,0,0,1,.779-.354,4.181,4.181,0,0,1,.992-.142,6.238,6.238,0,0,1,1.2.142,1.806,1.806,0,0,1,.85.567,4.015,4.015,0,0,1,.567.921,3.834,3.834,0,0,1,.213,1.346v5.171H88.725V27.746a1.759,1.759,0,0,0-.071-.638c-.071-.142-.071-.354-.213-.5a.854.854,0,0,0-.354-.354,1.414,1.414,0,0,0-.638-.142,2.1,2.1,0,0,0-.708.142,2.871,2.871,0,0,0-.638.354,3.272,3.272,0,0,0-.5.5,2.516,2.516,0,0,0-.283.638,1.206,1.206,0,0,0-.071.5v4.179H83.271V21.3Z" transform="translate(-71.016 -7.132)"/><path class="a" d="M96.7,21.3h1.983v1.771H96.7Zm0,3.117h1.983v8H96.7Z" transform="translate(-74.953 -7.132)"/><path class="a" d="M102.4,21.3h1.983v8.288a1.381,1.381,0,0,0,.071.567.541.541,0,0,0,.142.354.368.368,0,0,0,.283.142,3.069,3.069,0,0,0,.354.071h.283v1.7h-.638a3.449,3.449,0,0,1-.85-.071A1.572,1.572,0,0,1,103.25,32a2.22,2.22,0,0,1-.567-.779,3.571,3.571,0,0,1-.213-1.346V21.3Z" transform="translate(-76.615 -7.132)"/><path class="a" d="M108,28.384a4.286,4.286,0,0,1,.283-1.7,8.075,8.075,0,0,1,.708-1.346,3.41,3.41,0,0,1,1.133-.85,3.285,3.285,0,0,1,1.488-.283,4.288,4.288,0,0,1,1.063.142,6.582,6.582,0,0,1,.708.354,1.655,1.655,0,0,1,.5.5h0V21.3h1.983V32.422h-1.842v-1.2h0a2.773,2.773,0,0,1-.567.708,3.718,3.718,0,0,1-.779.5,2.7,2.7,0,0,1-1.133.213,3.484,3.484,0,0,1-1.488-.283,4.322,4.322,0,0,1-1.133-.85,3.467,3.467,0,0,1-.708-1.346A13.467,13.467,0,0,1,108,28.384Zm2.054,0a4.181,4.181,0,0,0,.142.992,1.689,1.689,0,0,0,.425.779,1.543,1.543,0,0,0,.638.5,1.4,1.4,0,0,0,.779.142,3.013,3.013,0,0,0,.779-.142,1.728,1.728,0,0,0,1.063-1.2,2.762,2.762,0,0,0,.142-1.133,4.146,4.146,0,0,0-.142-.921,2.619,2.619,0,0,0-.354-.779,1.672,1.672,0,0,0-.638-.567,1.886,1.886,0,0,0-.85-.213,2.547,2.547,0,0,0-.779.142,3.894,3.894,0,0,0-.638.5,1.689,1.689,0,0,0-.425.779A5.506,5.506,0,0,0,110.054,28.384Z" transform="translate(-78.248 -7.132)"/><path class="a" d="M122.271,25.642h1.913v1.842h0a2.618,2.618,0,0,1,.354-.779,1.672,1.672,0,0,1,.567-.638,1.47,1.47,0,0,1,.708-.425,3.556,3.556,0,0,1,.85-.142h.425v1.983h-.5a1.961,1.961,0,0,0-.638.071,2.517,2.517,0,0,0-.638.283,3.547,3.547,0,0,0-.567.5,2.619,2.619,0,0,0-.354.779c-.071.213-.071.425-.142.638,0,.213-.071.425-.071.708v3.188H122.2v-8Z" transform="translate(-82.389 -8.357)"/><path class="a" d="M130.1,29.579a4.287,4.287,0,0,1,.283-1.7,5.388,5.388,0,0,1,.85-1.346,4.02,4.02,0,0,1,1.275-.85,4.156,4.156,0,0,1,1.629-.283,3.286,3.286,0,0,1,1.488.283,6.421,6.421,0,0,1,1.133.779,4.911,4.911,0,0,1,.708,1.2,4.708,4.708,0,0,1,.213,1.488v.779h-5.525a2.009,2.009,0,0,0,.283.921,1.673,1.673,0,0,0,.567.638,6.231,6.231,0,0,0,.708.425,2.834,2.834,0,0,0,1.771,0,7.349,7.349,0,0,0,.708-.283,4.968,4.968,0,0,0,.638-.425l.779,1.417a5.91,5.91,0,0,1-.85.567c-.283.142-.638.283-.992.425a3.931,3.931,0,0,1-1.346.142,4.64,4.64,0,0,1-1.771-.354,3.519,3.519,0,0,1-1.346-.921,4.357,4.357,0,0,1-.85-1.346A3.606,3.606,0,0,1,130.1,29.579Zm5.6-.921a2.1,2.1,0,0,0-.142-.708,1.27,1.27,0,0,0-.354-.5,1.141,1.141,0,0,0-.5-.283,2.068,2.068,0,0,0-.638-.142,1.978,1.978,0,0,0-1.275.425,1.833,1.833,0,0,0-.638,1.2Z" transform="translate(-84.693 -8.328)"/><path class="a" d="M143.1,25.583h1.913V27h0a6.537,6.537,0,0,1,.354-.567,4.274,4.274,0,0,1,.567-.567,7.728,7.728,0,0,1,.779-.425,2.42,2.42,0,0,1,1.063-.142,6.239,6.239,0,0,1,1.2.142,1.806,1.806,0,0,1,.85.567,4.015,4.015,0,0,1,.567.921,3.834,3.834,0,0,1,.213,1.346v5.313h-1.983V28.913a1.759,1.759,0,0,0-.071-.638c-.071-.142-.071-.354-.213-.5a.854.854,0,0,0-.354-.354,1.415,1.415,0,0,0-.638-.142,2.1,2.1,0,0,0-.708.142,2.871,2.871,0,0,0-.638.354,1.655,1.655,0,0,0-.5.5,2.515,2.515,0,0,0-.283.638c-.071.142-.071.354-.142.5v4.179H143.1v-8Z" transform="translate(-88.484 -8.299)"/><path class="a" d="M156.708,21.1h1.842l-1.133,3.4H156Z" transform="translate(-92.246 -7.074)"/><path class="a" d="M161.65,31.267c.213.142.354.283.567.425a2.121,2.121,0,0,0,.708.283,3.555,3.555,0,0,0,.85.142.9.9,0,0,0,.425-.071c.142-.071.213-.071.354-.142s.142-.142.212-.213a.426.426,0,0,0,.071-.283.541.541,0,0,0-.142-.354,1.481,1.481,0,0,0-.425-.283,5.612,5.612,0,0,0-.638-.283c-.212-.071-.5-.213-.708-.283-.213-.142-.5-.213-.708-.354a3.893,3.893,0,0,1-.638-.5,1.673,1.673,0,0,1-.425-.638,1.534,1.534,0,0,1-.142-.85,2.262,2.262,0,0,1,.213-.992,1.55,1.55,0,0,1,.638-.708,2.115,2.115,0,0,1,.992-.425,5.189,5.189,0,0,1,2.408,0,5.908,5.908,0,0,1,.85.283,2.474,2.474,0,0,1,.638.425l-.708,1.488c-.142-.142-.354-.213-.5-.354a3.294,3.294,0,0,0-.638-.213,2.642,2.642,0,0,0-.85-.142.531.531,0,0,0-.354.071c-.142,0-.212.071-.354.142l-.213.213a.531.531,0,0,0-.071.354.541.541,0,0,0,.142.354,2.206,2.206,0,0,0,.425.283,5.625,5.625,0,0,0,.638.283c.213.071.5.213.708.283a3.309,3.309,0,0,1,.708.354,3.892,3.892,0,0,1,.637.5,1.673,1.673,0,0,1,.425.638,1.535,1.535,0,0,1,.142.85,1.961,1.961,0,0,1-.212.921,3.147,3.147,0,0,1-.567.779,3.817,3.817,0,0,1-.921.5,3.432,3.432,0,0,1-1.275.213,4.125,4.125,0,0,1-1.346-.213c-.354-.142-.708-.283-.992-.425a3.145,3.145,0,0,1-.779-.567Z" transform="translate(-93.645 -8.386)"/><path class="a" d="M67.9,41.3h1.983v4.746h5.03V41.371H76.9V52.422H74.913V47.746h-5.03v4.675H67.9Z" transform="translate(-66.554 -12.965)"/><path class="a" d="M83.4,49.579a4.294,4.294,0,0,1,1.275-3.046,4.715,4.715,0,0,1,1.417-.85,5.242,5.242,0,0,1,3.4,0,5.79,5.79,0,0,1,1.417.85,3.054,3.054,0,0,1,.921,1.346,4.281,4.281,0,0,1-.921,4.746,4.716,4.716,0,0,1-1.417.85,5.242,5.242,0,0,1-3.4,0,5.792,5.792,0,0,1-1.417-.85,3.055,3.055,0,0,1-.921-1.346A4.56,4.56,0,0,1,83.4,49.579Zm2.054,0a2.263,2.263,0,0,0,.213.992,2.129,2.129,0,0,0,1.275,1.275,2.1,2.1,0,0,0,1.842,0,2.129,2.129,0,0,0,1.275-1.275,2.42,2.42,0,0,0,0-1.983,2.129,2.129,0,0,0-1.275-1.275,2.1,2.1,0,0,0-1.842,0,2.129,2.129,0,0,0-1.275,1.275A1.687,1.687,0,0,0,85.454,49.579Z" transform="translate(-71.074 -14.16)"/><path class="a" d="M97.95,51.267c.213.142.354.283.567.425a2.121,2.121,0,0,0,.708.283,3.556,3.556,0,0,0,.85.142.9.9,0,0,0,.425-.071c.142-.071.213-.071.354-.142s.142-.142.213-.213a.426.426,0,0,0,.071-.283.541.541,0,0,0-.142-.354,1.482,1.482,0,0,0-.425-.283,5.615,5.615,0,0,0-.638-.283c-.213-.071-.5-.213-.708-.283-.212-.142-.5-.213-.708-.354a3.893,3.893,0,0,1-.638-.5,1.673,1.673,0,0,1-.425-.638,1.534,1.534,0,0,1-.142-.85,2.263,2.263,0,0,1,.213-.992,1.551,1.551,0,0,1,.638-.708,2.116,2.116,0,0,1,.992-.425,5.189,5.189,0,0,1,2.408,0,5.909,5.909,0,0,1,.85.283,2.472,2.472,0,0,1,.638.425l-.708,1.488c-.142-.142-.354-.213-.5-.354a3.293,3.293,0,0,0-.638-.213,2.642,2.642,0,0,0-.85-.142A.531.531,0,0,0,100,47.3c-.142,0-.213.071-.354.142l-.213.213a.531.531,0,0,0-.071.354.541.541,0,0,0,.142.354,2.2,2.2,0,0,0,.425.283,5.617,5.617,0,0,0,.638.283c.213.071.5.213.708.283a3.308,3.308,0,0,1,.708.354,3.892,3.892,0,0,1,.638.5,1.673,1.673,0,0,1,.425.638,1.534,1.534,0,0,1,.142.85,1.961,1.961,0,0,1-.212.921,3.147,3.147,0,0,1-.567.779,3.817,3.817,0,0,1-.921.5,3.432,3.432,0,0,1-1.275.213,4.124,4.124,0,0,1-1.346-.213c-.354-.142-.708-.283-.992-.425a3.145,3.145,0,0,1-.779-.567Z" transform="translate(-75.069 -14.219)"/><path class="a" d="M107.9,45.613h1.842v1.063h0a2.444,2.444,0,0,1,.567-.638,1.549,1.549,0,0,1,.354-.213l.425-.213a1.334,1.334,0,0,1,.567-.142c.213,0,.425-.071.638-.071a3.484,3.484,0,0,1,1.488.283,4.322,4.322,0,0,1,1.133.85,3.467,3.467,0,0,1,.708,1.346,6.2,6.2,0,0,1,.213,1.7,4.287,4.287,0,0,1-.283,1.7,3.856,3.856,0,0,1-.779,1.275,4.321,4.321,0,0,1-1.133.85,3.171,3.171,0,0,1-1.417.283,3.692,3.692,0,0,1-.992-.142,2.216,2.216,0,0,1-.708-.354,2.156,2.156,0,0,1-.567-.567h0v4.038h-1.983V45.613Zm1.913,4.038a4.146,4.146,0,0,0,.142.921,2.619,2.619,0,0,0,.354.779,1.813,1.813,0,0,0,1.488.779,2.547,2.547,0,0,0,.779-.142,3.893,3.893,0,0,0,.638-.5,1.688,1.688,0,0,0,.425-.779,4.287,4.287,0,0,0,.142-1.063,5.467,5.467,0,0,0-.142-1.063,1.688,1.688,0,0,0-.425-.779,1.542,1.542,0,0,0-.638-.5,1.428,1.428,0,0,0-.779-.213,3.012,3.012,0,0,0-.779.142,1.728,1.728,0,0,0-1.063,1.2A6.979,6.979,0,0,0,109.813,49.65Z" transform="translate(-78.219 -14.16)"/><path class="a" d="M121.4,41.3h1.983v1.771H121.4Zm0,3.117h1.983v8H121.4Z" transform="translate(-82.156 -12.965)"/><path class="a" d="M127.263,46.525H126.2V44.967h1.063V42.7h1.913v2.267h1.771v1.558h-1.771v3.117a2.187,2.187,0,0,0,.142.779,1.2,1.2,0,0,0,.425.425c.142.071.354.142.5.213.213,0,.354.071.5.071h.354v1.7h-.567a2.185,2.185,0,0,1-.638-.071,2.517,2.517,0,0,1-.708-.142c-.212-.071-.5-.213-.708-.283a2.294,2.294,0,0,1-.638-.567,2.129,2.129,0,0,1-.425-.779,2.937,2.937,0,0,1-.142-1.133Z" transform="translate(-83.555 -13.373)"/><path class="a" d="M134.6,51.28a1.707,1.707,0,0,1,.283-1.063,3.712,3.712,0,0,1,.708-.779,3.816,3.816,0,0,1,.921-.5,5.9,5.9,0,0,1,1.063-.283c.354-.071.708-.071.992-.142a2.857,2.857,0,0,1,.779,0h.283v-.142a1.415,1.415,0,0,0-.142-.638.726.726,0,0,0-.354-.425.643.643,0,0,0-.5-.213,1.961,1.961,0,0,0-.638-.071,3.555,3.555,0,0,0-.85.142,2.122,2.122,0,0,0-.708.283c-.212.142-.425.213-.637.354l-.779-1.417a5.285,5.285,0,0,1,.85-.5,7.7,7.7,0,0,1,.992-.354,6.354,6.354,0,0,1,1.275-.142,4.567,4.567,0,0,1,1.417.213,2.667,2.667,0,0,1,1.063.638,2.972,2.972,0,0,1,.638.992,4.125,4.125,0,0,1,.212,1.346v4.959H139.63v-1.2h0a1.548,1.548,0,0,1-.213.354c-.071.142-.213.213-.283.354-.142.142-.283.213-.425.354a1.335,1.335,0,0,1-.638.283,2.906,2.906,0,0,1-.779.071,4.18,4.18,0,0,1-.992-.142,2.45,2.45,0,0,1-.85-.5,2.009,2.009,0,0,1-.567-.779A1.707,1.707,0,0,1,134.6,51.28Zm1.983-.071a.531.531,0,0,0,.071.354c.071.142.142.213.213.354a1.549,1.549,0,0,0,.354.213,1.444,1.444,0,0,0,1.2-.142,1.91,1.91,0,0,0,.567-.5,2.216,2.216,0,0,0,.354-.708,2.518,2.518,0,0,0,.142-.708v-.213h-.921a1.381,1.381,0,0,0-.567.071c-.142.071-.354.071-.567.142a3.455,3.455,0,0,0-.5.213.854.854,0,0,0-.354.354A1.525,1.525,0,0,1,136.583,51.209Z" transform="translate(-86.005 -14.16)"/><path class="a" d="M147.2,41.3h1.983v8.288a1.381,1.381,0,0,0,.071.567.541.541,0,0,0,.142.354.368.368,0,0,0,.283.142,3.069,3.069,0,0,0,.354.071h.283v1.7h-.638a3.449,3.449,0,0,1-.85-.071A1.572,1.572,0,0,1,148.05,52a2.22,2.22,0,0,1-.567-.779,3.571,3.571,0,0,1-.212-1.346V41.3Z" transform="translate(-89.679 -12.965)"/><path class="a" d="M69.613,63.1H66V61.4h9.28v1.7H71.667v9.351H69.684V63.1Z" transform="translate(-66 -18.826)"/><path class="a" d="M79.871,65.642h1.913v1.842h0a2.618,2.618,0,0,1,.354-.779,1.673,1.673,0,0,1,.567-.638,1.47,1.47,0,0,1,.708-.425,3.555,3.555,0,0,1,.85-.142h.425v1.983h-.5a1.961,1.961,0,0,0-.638.071,2.515,2.515,0,0,0-.638.283,3.547,3.547,0,0,0-.567.5,2.618,2.618,0,0,0-.354.779c-.071.213-.071.425-.142.638,0,.213-.071.425-.071.708v3.188H79.8v-8Z" transform="translate(-70.024 -20.022)"/><path class="a" d="M88.3,65.7h1.983v4.675a1.759,1.759,0,0,0,.071.638c.071.142.071.354.213.5a.854.854,0,0,0,.354.354,1.414,1.414,0,0,0,.638.142,1.961,1.961,0,0,0,.921-.213,2.773,2.773,0,0,0,.708-.567,1.616,1.616,0,0,0,.425-.85,4.784,4.784,0,0,0,.142-.992V65.771h1.983V73.7H93.825V72.217h0a1.673,1.673,0,0,1-.425.638,5.152,5.152,0,0,1-.638.567,2.619,2.619,0,0,1-.779.354,4.145,4.145,0,0,1-.921.142,5.505,5.505,0,0,1-1.133-.142,1.41,1.41,0,0,1-.85-.567,2.912,2.912,0,0,1-.567-.921,3.98,3.98,0,0,1-.212-1.417Z" transform="translate(-72.503 -20.08)"/><path class="a" d="M101.85,71.267c.213.142.354.283.567.425a2.122,2.122,0,0,0,.708.283,3.556,3.556,0,0,0,.85.142.9.9,0,0,0,.425-.071c.142-.071.213-.071.354-.142s.142-.142.213-.213a.426.426,0,0,0,.071-.283.541.541,0,0,0-.142-.354,1.482,1.482,0,0,0-.425-.283,5.62,5.62,0,0,0-.638-.283c-.213-.071-.5-.213-.708-.283-.213-.142-.5-.213-.708-.354a3.891,3.891,0,0,1-.638-.5,1.673,1.673,0,0,1-.425-.638,1.534,1.534,0,0,1-.142-.85,2.263,2.263,0,0,1,.213-.992,1.551,1.551,0,0,1,.638-.708,2.116,2.116,0,0,1,.992-.425,5.189,5.189,0,0,1,2.409,0,5.907,5.907,0,0,1,.85.283,2.472,2.472,0,0,1,.638.425l-.708,1.488c-.142-.142-.354-.213-.5-.354a3.294,3.294,0,0,0-.638-.213,2.642,2.642,0,0,0-.85-.142.531.531,0,0,0-.354.071c-.142,0-.213.071-.354.142l-.213.213a.531.531,0,0,0-.071.354.541.541,0,0,0,.142.354,2.2,2.2,0,0,0,.425.283,5.619,5.619,0,0,0,.638.283c.212.071.5.213.708.283a3.309,3.309,0,0,1,.708.354,3.9,3.9,0,0,1,.638.5,1.673,1.673,0,0,1,.425.638,1.534,1.534,0,0,1,.142.85,1.961,1.961,0,0,1-.213.921,3.144,3.144,0,0,1-.567.779,3.816,3.816,0,0,1-.921.5,3.431,3.431,0,0,1-1.275.213,4.124,4.124,0,0,1-1.346-.213c-.354-.142-.708-.283-.992-.425a3.146,3.146,0,0,1-.779-.567Z" transform="translate(-76.207 -20.051)"/><path class="a" d="M111.863,66.525H110.8V64.967h1.063V62.7h1.913v2.267h1.771v1.558h-1.771v3.117a2.187,2.187,0,0,0,.142.779,1.2,1.2,0,0,0,.425.425c.142.071.354.142.5.213.212,0,.354.071.5.071h.354v1.7h-.567a2.186,2.186,0,0,1-.638-.071c-.212-.071-.5-.071-.708-.142a2.962,2.962,0,0,1-.708-.283,2.3,2.3,0,0,1-.638-.567,1.689,1.689,0,0,1-.425-.779,4.931,4.931,0,0,1-.142-1.133V66.525Z" transform="translate(-79.064 -19.205)"/></g><g transform="translate(0)"><path class="a" d="M22.243,0C9.988,0,0,12.468,0,27.839S9.988,55.679,22.243,55.679,44.486,43.211,44.486,27.839,34.5,0,22.243,0Zm0,53.7C11.051,53.7,1.913,42.078,1.913,27.839S11.051,1.983,22.243,1.983,42.574,13.6,42.574,27.839C42.574,42.149,33.436,53.7,22.243,53.7Z" transform="translate(0)"/><path class="a" d="M23.526,4.5C12.971,4.5,4.4,15.551,4.4,29.152S12.971,53.8,23.526,53.8,42.653,42.753,42.653,29.152C42.653,15.622,34.081,4.5,23.526,4.5Zm1.913,2.9,5.1,2.692a38.995,38.995,0,0,1,3.825,3.825,26.511,26.511,0,0,1-6.8-4.534C26.785,8.75,26.077,8.113,25.3,7.4h.142ZM24.376,9.813c0-.779.142-1.558.213-2.409l.283.142,4.675,3.967v.071a12.208,12.208,0,0,1-1.488.5c-.142,0-.354.071-.354.213v.071c.708.5,1.488,1.063,2.2,1.488,0-.638-.071-1.275-.071-1.913l.071-.071c1.629.921,3.117,1.842,4.817,2.834v.071c-.779.354-1.629.567-2.409.992a32.544,32.544,0,0,1-4.675-2.975c-1.133-.85-2.338-1.771-3.471-2.692C24.164,9.955,24.306,9.884,24.376,9.813Zm7.084,9.563c-.425.213-.779-.071-1.2-.142-.071-.071-.071-.142-.071-.283.213-.071.567-.071.708-.425-.142-.638.708-.638.638-1.2a.872.872,0,0,1,.921-.354.561.561,0,0,1,.567.354,3.321,3.321,0,0,1-.921,2.834,1.673,1.673,0,0,1-1.629-.283V19.73c.354.071.85.213,1.2-.071C31.673,19.518,31.673,19.376,31.46,19.376ZM23.6,10.946a.531.531,0,0,1,.354-.071,61.443,61.443,0,0,0,7.58,5.384c.071.071.213.283.071.425-.213.142-.425-.071-.638-.071a57.673,57.673,0,0,1-7.226-5.1A.479.479,0,0,1,23.6,10.946ZM11.909,22.705c.921-1.2.283-3.329,1.983-4.109a3.044,3.044,0,0,1,2.338-.779c.5.213,1.133.071,1.629.5a1.173,1.173,0,0,1,.85,0,.069.069,0,0,0,.071.071c.283-.071.567.142.85.213.567.425.5,1.275.354,1.913a.537.537,0,0,0-.283.142A1.33,1.33,0,0,1,19.914,22a1.132,1.132,0,0,0-.638.921c.142.142.354-.142.638,0,.638.638.354,1.771.071,2.621a2.042,2.042,0,0,1-1.558,1.275,3.528,3.528,0,0,1-2.834-1.346c-.283-.354-.071-.921-.5-1.133-.283.071-.354.425-.708.354-.354-.142-.213-.779-.638-.708-.354.567.85,1.063.071,1.417-.5.142-.921-.354-1.417-.283A2.694,2.694,0,0,1,11.909,22.705Zm-.283,20.118c-.708-.5-.354-1.629-1.2-2.125-1.2-3.117.142-6.375.708-9.351.708-1.275.354-3.117,1.771-3.967a3.253,3.253,0,0,0,1.417-1.346c.638-.071.779.779,1.417.85l.5.283c.354.354,1.346-.071,1.275.708l1.7,1.063,1.771,1.417h.213c.142-.213-.354-.5,0-.567,1.346.213,2.409-.638,3.542-1.063a.664.664,0,0,1,.708.354,8.082,8.082,0,0,1,.5,2.9,7.144,7.144,0,0,1-1.275.638c-.5-.354-.992.142-1.417.354-1.346.779-2.9,1.7-4.534.921-1.417.921-2.55-.779-3.9-.921-.213.142-.213.425-.213.638.213.142.638.071.921.213.779.425,1.275,1.346,2.408,1.2A.069.069,0,0,0,18,35.1v.142a2.776,2.776,0,0,0-1.275,1.275c.071.213.354.142.5.071.85-.425,1.488-1.2,2.55-1.275.425.425-.425.779-.213,1.346a1.856,1.856,0,0,1,.567,1.842c-.354.425-.921.567-1.063,1.063a.4.4,0,0,0,.283.5c.779,0,.921-1.488,1.983-.992.85.354,1.913.213,2.55.992a6.9,6.9,0,0,1,.779,1.629c-.142.354-.708.5-1.063.638-1.629.708-3.542.85-5.242,1.488-1.558.071-2.834-1.063-4.321-.213A4.053,4.053,0,0,1,11.626,42.824ZM29.9,27.664a6.84,6.84,0,0,1-.213,1.275A3.593,3.593,0,0,1,27,30.427c-.638-.071-.779-.779-1.063-1.2a2.18,2.18,0,0,1,1.275-1.983c.213-.213.425.071.708,0,.638,0,1.063-.354,1.7-.213l.142.213C29.689,27.381,29.9,27.522,29.9,27.664ZM13.4,46.649c-.071-.213-.5-.213-.5-.425.142-.354-.213-.567-.354-.85.071-.779,1.063-.638,1.558-.921.638-.85,1.771-.283,2.55-.142a9.616,9.616,0,0,1,1.7.921,2.022,2.022,0,0,1,.213,1.913,14.991,14.991,0,0,1-3.188.779c-.5,0-.992,0-1.275-.354C14.1,47.145,13.4,47.215,13.4,46.649Zm13.884,5.03A14.411,14.411,0,0,1,15.1,49.695c.142-.354.283-.708.638-.779.567-.071,1.063.283,1.629.354a2.52,2.52,0,0,0,1.063,0c.5,0,.779-.354,1.2-.5.638-.071,1.417-.071,2.054-.142a8.328,8.328,0,0,0,3.684.142c.213-.071,1.346-.638,2.054-.921.567,0,.354.638.567.992.283.779.425,1.488.708,2.267C28.414,51.395,27.777,51.395,27.281,51.678Zm3.9-1.7c-.354-.213-.567-.779-.992-.708-.142.425.354.638.283,1.133a3.7,3.7,0,0,1-1.133.425,5.814,5.814,0,0,1-.779-2.2c.071-.921,1.2-.213,1.629-.638l.283.071c.5.5.992.779,1.2,1.417C31.673,49.695,31.46,49.837,31.177,49.978Zm1.133-.85A8.972,8.972,0,0,1,30.4,46.72c0-.142,0-.283.213-.354,1.346-.071,2.2.921,2.9,1.842A6.815,6.815,0,0,1,32.31,49.128Zm1.629-9.351c-1.2,2.054-2.2,4.392-4.109,5.88a13.737,13.737,0,0,1-3.825,1.417,17.2,17.2,0,0,1-5.738.354c-.779-.567-.638-1.7-.708-2.621,0-1.063,1.275-.567,1.913-.85a9.2,9.2,0,0,0,5.242-2.2.782.782,0,0,1,.567,0c.283.213.213.85.638.567.5-.5-.071-1.063-.071-1.629.071-.142.213,0,.354,0,.213.213.213.638.567.779.213,0,.354-.213.425-.354a.571.571,0,0,0-.213-.638c-.213-.283-.779-.142-.921-.5a10.976,10.976,0,0,1,1.346-3.967,23.877,23.877,0,0,1,2.763-4.675l-.071-.071c-.85.354-1.346,1.346-1.913,2.125a51.74,51.74,0,0,0-2.55,4.817c-.142.071-.213.354-.354.354a7.423,7.423,0,0,1,.071-1.771,24.605,24.605,0,0,1,3.188-4.959A8.355,8.355,0,0,1,32.1,29.931a6.316,6.316,0,0,1,2.267-1.488c0-.071.071-.213-.071-.213a4.345,4.345,0,0,0-2.409,1.2,22.562,22.562,0,0,0-5.1,6.446c-.5,1.2-.567,2.479-1.063,3.684-1.063.283-1.558-.921-2.55-1.133-.708-.5-1.771-.921-1.417-2.125.5-2.267,3.046-2.834,4.675-3.9.213-.213,0-.708.354-.85a5.542,5.542,0,0,0,3.471-2.55c-.213-.5.354-.779.071-1.2.071-.071.071-.283.071-.425-.142-.354-.213-.708-.567-.85a17.262,17.262,0,0,1-1.913.071c-.071-.142.071-.5-.213-.567-.354.071-.354.354-.638.5a4.707,4.707,0,0,0-1.7,1.629c-.779-.283-1.346.354-2.054.567a3.538,3.538,0,0,1-3.046.213c-.425-.213-.213-.779-.213-1.2a2.754,2.754,0,0,1,1.2-1.913,18.233,18.233,0,0,1,3.4-.779c.283.213.142.921.638.638.071-.638-.283-1.488.5-1.771a17.9,17.9,0,0,0,3.9-.638c.071-.071,0-.071,0-.142-.213-.283-.5,0-.85-.071a11.216,11.216,0,0,1-2.692.213c0-.142-.071-.071-.142-.213-.5-.142-.708.283-1.063.354a2.476,2.476,0,0,1-2.125.071c-.638-.354.071-1.2-.567-1.558a.344.344,0,0,1,.213-.425c.213-.071.5-.071.638-.354.071-.142,0-.213-.071-.283a3.049,3.049,0,0,1-1.133,0c-.142-.213.071-.708-.283-.779-.213-.071-.638.071-.779-.283.071-.567.283-1.063.425-1.7.142,0,.425,0,.5.213s-.071.5.213.638c.283-.354.567-.85,1.133-.921a.537.537,0,0,0,.142-.283c-.425-.213-1.063.071-1.417-.354-.071-.071-.213-.213-.071-.354a3.589,3.589,0,0,1,1.063-.5c-.213-.354-.638-.071-.921-.071-.354-.071-.708.708-.921.071.071-.567-.5-1.133-.213-1.7.213,0,.354.142.567.213-.071.071,0,.213-.071.354l.071.071A8.592,8.592,0,0,1,23.6,14.7c.213.142-.071.425.142.567a4.2,4.2,0,0,1,3.542.779c.283-.213-.142-.5-.142-.779-.708-.638-1.771-.567-2.763-.779a.388.388,0,0,0-.425-.283c-.354.071-.708.071-.992.142-.071-.213-.213-.425-.071-.638a2.841,2.841,0,0,1,1.346.213c-.071-.354-.213-.779-.638-.779-.425-.142-.708.354-1.063.071a.989.989,0,0,0-.638.213.446.446,0,0,0,.213.567c.071,0,.213,0,.213.213-.142.283-.5.142-.779.213-.638-.213-1.629-.213-1.842-.921,0-.5.5-.779.638-1.133.5-.5.567-1.771,1.488-1.771a1.527,1.527,0,0,1,1.2.354c.283.5.5,1.2,1.063,1.346a.426.426,0,0,1,.071.283c-.142.071-.213.213-.071.354.5.142,1.133.213,1.346.708-.071.5.5.283.779.425,1.771.5,3.046,1.983,4.6,2.834a1.367,1.367,0,0,1,.213.708c-.071.213-.283.071-.425.071a.723.723,0,0,1-.425.85c-.5.213-.921.071-1.417.354-.425,0-.921-.354-1.2.071-.071.213,0,.354.213.354.354.071.638.071.85.354a1.377,1.377,0,0,1-.213.921c-.071.071-.354.142-.354.283-.071.071.071.071.071.142.921.071.992-1.7,2.054-.992a7.845,7.845,0,0,1,.921,2.834c.283.142.5-.213.779,0,.5.638.425,1.488.921,2.054,0,.354-.85.354-.283.638.283.071.5-.354.85-.071,1.133,1.275,3.259,1.983,3.329,4.038A13.954,13.954,0,0,1,33.94,39.777Z" transform="translate(-1.283 -1.312)"/><path class="b" d="M23.031,2.8C11.838,2.8,2.7,14.417,2.7,28.656s9.138,25.856,20.331,25.856S43.361,42.894,43.361,28.656,34.223,2.8,23.031,2.8Zm0,50.508C12.476,53.308,3.9,42.257,3.9,28.656S12.476,4,23.031,4,42.157,15.055,42.157,28.656,33.585,53.308,23.031,53.308Z" transform="translate(-0.787 -0.817)"/><path class="b" d="M35.892,14.055a40.139,40.139,0,0,0,4.675,2.975,18.939,18.939,0,0,1,2.409-.992V15.9c-1.629-.921-3.117-1.913-4.817-2.834l-.071.071c0,.638.071,1.346.071,1.913a14.963,14.963,0,0,1-2.2-1.488v-.071c0-.142.213-.213.354-.213a9.16,9.16,0,0,0,1.488-.5v-.071L33.13,8.742,32.846,8.6c-.071.779-.213,1.558-.213,2.409-.071.071-.213.213-.142.354C33.484,12.284,34.759,13.2,35.892,14.055Z" transform="translate(-9.47 -2.508)"/><path class="b" d="M42.967,15.117a48.717,48.717,0,0,0-3.825-3.825L34.042,8.6H33.9c.779.708,1.488,1.346,2.267,1.983A25.35,25.35,0,0,0,42.967,15.117Z" transform="translate(-9.886 -2.508)"/><path class="b" d="M42.672,32.114c-.071-2.054-2.2-2.763-3.329-4.038-.354-.213-.567.142-.85.071-.567-.283.283-.354.283-.638-.5-.638-.425-1.488-.921-2.054-.283-.213-.5.142-.779,0a12.077,12.077,0,0,0-.921-2.834c-1.063-.708-1.063,1.063-2.054.992,0-.071-.071-.071-.071-.142,0-.142.213-.213.354-.283a1.377,1.377,0,0,0,.213-.921c-.213-.283-.5-.283-.85-.354-.213,0-.213-.213-.213-.354.283-.425.779-.071,1.2-.071.5-.354.921-.213,1.417-.354a.723.723,0,0,0,.425-.85c.142-.071.354.071.425-.071a1.367,1.367,0,0,0-.213-.708c-1.558-.85-2.834-2.338-4.6-2.834-.283-.142-.921.071-.779-.425-.213-.5-.85-.567-1.346-.708-.071-.142-.071-.354.071-.354a.175.175,0,0,0-.071-.283c-.567-.142-.779-.85-1.063-1.346a2.388,2.388,0,0,0-1.2-.354c-.921,0-.992,1.2-1.488,1.771-.142.354-.638.638-.638,1.133.213.708,1.2.779,1.842.921.283-.071.638.071.779-.213.071-.213-.071-.213-.213-.213a.446.446,0,0,1-.213-.567c.142-.213.354-.213.638-.213.354.354.638-.213,1.063-.071.354.071.5.5.638.779a4.448,4.448,0,0,0-1.346-.213c-.142.213,0,.5.071.638.283-.071.638-.071.992-.142a.388.388,0,0,1,.425.283c.921.213,2.054.142,2.763.779,0,.283.425.567.142.779a3.735,3.735,0,0,0-3.542-.779c-.213-.142.071-.425-.142-.567a9.563,9.563,0,0,0-2.267.779l-.071-.071c.071-.142,0-.213.071-.354-.213-.071-.354-.213-.567-.213-.354.567.213,1.133.213,1.7.213.638.567-.213.921-.071.283,0,.708-.213.921.071-.354.213-.779.213-1.063.5-.071.142.071.213.071.354.354.425.992.142,1.417.354a.537.537,0,0,1-.142.283c-.567.071-.85.5-1.133.921-.283-.071-.213-.425-.213-.638-.071-.213-.354-.213-.5-.213-.142.638-.354,1.133-.425,1.7.071.354.5.213.779.283.354.071.142.567.283.779a3.049,3.049,0,0,0,1.133,0c.071.071.071.142.071.283a.954.954,0,0,1-.638.354c-.071.071-.283.213-.213.425.638.354-.071,1.2.567,1.558a2.485,2.485,0,0,0,2.125-.071c.354-.071.638-.5,1.063-.354.071.071.142.071.142.213a11.216,11.216,0,0,0,2.692-.213c.354.071.638-.213.85.071,0,.071.071.071,0,.142a17.9,17.9,0,0,1-3.9.638c-.779.213-.425,1.063-.5,1.771-.5.213-.354-.5-.638-.638a18.234,18.234,0,0,0-3.4.779,2.673,2.673,0,0,0-1.2,1.913c0,.425-.213.992.213,1.2.921.283,2.338.5,3.117-.213.638-.213,1.275-.85,2.054-.567a4.193,4.193,0,0,1,1.7-1.629c.283-.071.283-.425.638-.5.283.071.142.425.213.567a17.262,17.262,0,0,1,1.913-.071c.354.142.425.5.567.85,0,.142-.071.354-.071.425.213.5-.283.708-.071,1.2a5.363,5.363,0,0,1-3.471,2.55c-.354.142-.071.638-.354.85-1.629,1.063-4.179,1.629-4.675,3.9-.354,1.2.708,1.629,1.417,2.125.921.213,1.417,1.417,2.55,1.133.5-1.2.567-2.479,1.063-3.684a22.562,22.562,0,0,1,5.1-6.446,4.345,4.345,0,0,1,2.409-1.2c.142,0,.071.142.071.213a6.316,6.316,0,0,0-2.267,1.488,8.355,8.355,0,0,0-1.558,1.913,24.606,24.606,0,0,0-3.188,4.959,7.423,7.423,0,0,0-.071,1.771c.213,0,.213-.213.354-.354a51.742,51.742,0,0,1,2.55-4.817c.567-.779,1.063-1.771,1.913-2.125l.071.071a25.4,25.4,0,0,0-2.763,4.675A11.453,11.453,0,0,0,34.1,42.6c.142.354.638.213.921.5a.571.571,0,0,1,.213.638.449.449,0,0,1-.425.354c-.354-.071-.354-.5-.567-.779-.142,0-.283-.142-.354,0-.071.567.5,1.063.071,1.629-.425.283-.354-.354-.638-.567a.782.782,0,0,0-.567,0,9.2,9.2,0,0,1-5.242,2.2c-.638.283-1.913-.213-1.913.85.071.921-.071,2.054.708,2.621a14.153,14.153,0,0,0,5.738-.354,13.737,13.737,0,0,0,3.825-1.417c1.913-1.488,2.834-3.825,4.109-5.88C42.105,39.481,43.522,35.939,42.672,32.114Zm-9.209-12.68a4.011,4.011,0,0,0,2.338.5c.213,0,.354.071.354.213a.327.327,0,0,1-.213.354,4.011,4.011,0,0,1-2.55-.921Zm-1.7.213a3.057,3.057,0,0,1-1.7-1.063.247.247,0,0,1,.071-.354,3.631,3.631,0,0,0,2.692.992c.071.071.283.142.213.283-.142.071-.354.071-.5.213.354.779,1.275.992,2.054,1.2.071.142-.071.142-.213.213A2.843,2.843,0,0,1,31.763,19.646Z" transform="translate(-7.465 -3.849)"/><path class="b" d="M38.748,19.138c.213.071.425.213.638.071a.267.267,0,0,0-.071-.425,67.3,67.3,0,0,1-7.58-5.384.531.531,0,0,0-.354.071.436.436,0,0,0,.071.5A71.945,71.945,0,0,0,38.748,19.138Z" transform="translate(-9.138 -3.908)"/><path class="c" d="M36.315,23.092a3.227,3.227,0,0,1-2.054-1.2c.142-.142.354-.071.5-.213.071-.142-.071-.213-.213-.283a3.854,3.854,0,0,1-2.692-.992c-.142.071-.142.213-.071.354a3.5,3.5,0,0,0,1.7,1.063,2.89,2.89,0,0,0,2.55,1.488C36.173,23.234,36.315,23.234,36.315,23.092Z" transform="translate(-9.254 -5.949)"/><path class="c" d="M39.221,23.063a.327.327,0,0,0,.213-.354c0-.213-.142-.213-.354-.213a4.237,4.237,0,0,1-2.409-.5l-.071.142C37.45,22.567,38.158,23.2,39.221,23.063Z" transform="translate(-10.673 -6.416)"/><path class="b" d="M41.083,24.873v.213a1.673,1.673,0,0,0,1.629.283c.921-.638.921-1.771.921-2.834a.561.561,0,0,0-.567-.354.809.809,0,0,0-.921.354c.071.567-.779.567-.638,1.2-.142.354-.5.354-.708.425,0,.142,0,.213.071.283.425.071.779.354,1.2.142.213,0,.213.142.213.283A1.759,1.759,0,0,1,41.083,24.873Z" transform="translate(-11.898 -6.455)"/><path class="b" d="M16.881,30.861c.779-.354-.354-.85-.071-1.417.5-.071.354.567.638.708.354.071.425-.283.708-.354.425.213.213.779.5,1.133a3.748,3.748,0,0,0,2.834,1.346A2.042,2.042,0,0,0,23.044,31c.213-.779.567-1.913-.071-2.621-.213-.142-.5.142-.638,0a1.092,1.092,0,0,1,.638-.921,1.353,1.353,0,0,0-.213-1.346.537.537,0,0,1,.283-.142,1.717,1.717,0,0,0-.354-1.913c-.283-.071-.567-.354-.85-.213a.069.069,0,0,1-.071-.071,1.173,1.173,0,0,0-.85,0c-.5-.354-1.063-.283-1.629-.5a3.044,3.044,0,0,0-2.338.779c-1.7.779-1.063,2.834-1.983,4.109a2.511,2.511,0,0,0,.5,2.338C15.96,30.507,16.315,31,16.881,30.861Zm5.313,0a.428.428,0,0,1-.425.213c-.213-.071-.354-.283-.638-.213v-.213c.354.213.567-.213.921-.142a.312.312,0,0,1,.354-.071C22.407,30.507,22.194,30.648,22.194,30.861Zm.213-1.346c.142.213-.213.283-.354.354-.213.071-.213-.213-.283-.283C21.911,29.444,22.194,29.586,22.407,29.515Zm-.779-3.259c.354-.354.213-.921.5-1.346.213-.071.283.071.354.213l-.071.638c-.638-.071-.283,1.2-1.063.85l-.213-.213C21.273,26.115,21.486,26.4,21.627,26.256Zm-.071,1.771a.486.486,0,0,1-.213.638h-1.2c-.071-.425.779-.354.425-.779l-.283.071c-.071-.213.142-.142.213-.283C20.848,27.673,21.486,27.531,21.557,28.027Zm-2.975-.779a.276.276,0,0,0,.5-.142c.142-.213.354-.779.708-.779a.313.313,0,0,0,.5.142l.142.071a.814.814,0,0,1-.425.638c-.283.071-.5-.213-.638.213-.071.283-.071.638-.354.779-.213-.071-.5-.283-.5.071v.921a.247.247,0,0,1-.354-.071A2.57,2.57,0,0,1,18.581,27.248Zm-2.2-.992c.354-.071.354.567.779.213a1.833,1.833,0,0,1-.213,1.346c-.354-.071-.071-.567-.354-.779-.5.283-.142,1.063-.638,1.346a.226.226,0,0,1-.213-.213C16.173,27.744,15.89,26.823,16.385,26.256Z" transform="translate(-4.343 -6.776)"/><path class="c" d="M25.075,26.45l.071-.638a.327.327,0,0,0-.354-.213c-.283.354-.213.921-.5,1.346-.142.071-.354-.142-.5.071l.142.283C24.792,27.654,24.438,26.308,25.075,26.45Z" transform="translate(-6.94 -7.465)"/><path class="c" d="M16.313,29.717c.5-.354.142-1.063.638-1.346.213.213,0,.638.354.779a1.782,1.782,0,0,0,.213-1.346c-.354.354-.354-.354-.779-.213-.5.567-.213,1.488-.638,1.983C16.171,29.646,16.242,29.717,16.313,29.717Z" transform="translate(-4.695 -8.041)"/><path class="c" d="M19.876,30.4l.071-.992c.071-.354.354-.142.5-.071.283-.142.213-.5.354-.779.142-.425.354-.213.638-.213a.814.814,0,0,0,.425-.638l-.142-.071c-.142.142-.5.071-.5-.142-.354.071-.567.567-.708.779-.071.213-.354.354-.5.142a2.66,2.66,0,0,0-.425,1.842A.17.17,0,0,0,19.876,30.4Z" transform="translate(-5.708 -8.019)"/><path class="c" d="M22.44,29.776l.283-.071c.354.425-.5.354-.425.779h1.2c.283-.071.213-.354.213-.638-.071-.5-.638-.354-1.063-.354C22.582,29.634,22.44,29.563,22.44,29.776Z" transform="translate(-6.501 -8.595)"/><path class="c" d="M24.6,32.252c.071.071.071.354.283.283.142-.071.5-.142.354-.354C25.025,32.181,24.742,32.039,24.6,32.252Z" transform="translate(-7.174 -9.371)"/><path class="c" d="M24.621,33.359c-.354-.071-.5.354-.921.142v.213c.213-.071.425.142.638.213a.344.344,0,0,0,.425-.213c0-.213.213-.283.213-.425C24.9,33.217,24.763,33.288,24.621,33.359Z" transform="translate(-6.911 -9.699)"/><path class="b" d="M16.613,52.366c1.488-.779,2.763.354,4.321.213,1.629-.638,3.542-.779,5.242-1.488.354-.142.921-.213,1.063-.638a17.023,17.023,0,0,0-.779-1.629c-.638-.779-1.7-.638-2.55-.992-1.063-.5-1.2.992-1.983.992-.213-.071-.354-.354-.283-.5.142-.5.779-.638,1.063-1.063a1.856,1.856,0,0,0-.567-1.842c-.213-.5.638-.921.213-1.346-.992.071-1.629.85-2.55,1.275-.142.071-.354.142-.5-.071a2.776,2.776,0,0,1,1.275-1.275v-.142c-.071,0-.071,0-.071-.071-1.133.142-1.629-.779-2.409-1.2-.283-.142-.638-.071-.921-.213a.571.571,0,0,1,.213-.638c1.346.071,2.479,1.842,3.9.921,1.629.779,3.259-.071,4.534-.921.425-.213.921-.638,1.417-.354a3.1,3.1,0,0,0,1.275-.638,8.082,8.082,0,0,0-.5-2.9c-.142-.213-.354-.5-.708-.354-1.133.425-2.267,1.346-3.542,1.063-.354.071.142.354,0,.567h-.213L21.784,37.7c-.567-.354-1.133-.638-1.7-1.063.071-.779-.921-.354-1.275-.708l-.5-.283c-.638-.071-.779-.921-1.417-.85a3.709,3.709,0,0,1-1.417,1.346c-1.417.85-1.063,2.692-1.771,3.967-.567,2.975-1.913,6.234-.708,9.351.779.5.5,1.629,1.2,2.125A2.8,2.8,0,0,0,16.613,52.366Z" transform="translate(-3.649 -10.147)"/><path class="b" d="M38.484,36.186c-.638-.142-1.063.213-1.7.213-.283.071-.5-.213-.708,0A2.18,2.18,0,0,0,34.8,38.382c.283.425.5,1.133,1.063,1.2A4.271,4.271,0,0,0,38.554,38.1a2.558,2.558,0,0,0,.213-1.275c-.071-.142-.213-.213-.142-.5Z" transform="translate(-10.148 -10.543)"/><path class="b" d="M22.021,63.5a2.022,2.022,0,0,0-.213-1.913,9.615,9.615,0,0,0-1.7-.921c-.779-.142-1.913-.708-2.55.142-.5.213-1.488.142-1.558.921.071.283.5.5.354.85.071.213.425.213.5.425,0,.567.638.5.779.921.283.354.779.354,1.275.354A16.728,16.728,0,0,0,22.021,63.5Z" transform="translate(-4.666 -17.6)"/><path class="b" d="M41.213,63.6c-.213.071-.213.213-.213.354a8.971,8.971,0,0,0,1.913,2.409,4.625,4.625,0,0,0,1.133-.921C43.409,64.59,42.558,63.528,41.213,63.6Z" transform="translate(-11.956 -18.545)"/><path class="b" d="M31.826,65.6c-.708.213-1.771.85-2.054.921a8.32,8.32,0,0,1-3.684-.142c-.638.071-1.417.071-2.054.142-.425.142-.779.5-1.2.5a2.52,2.52,0,0,1-1.063,0,13.4,13.4,0,0,0-1.629-.354c-.354.071-.5.5-.638.779a14.05,14.05,0,0,0,12.255,1.983,4.325,4.325,0,0,0,1.417-.638c-.283-.779-.425-1.488-.708-2.267C32.18,66.238,32.463,65.6,31.826,65.6Z" transform="translate(-5.687 -19.13)"/><path class="b" d="M40.513,65.971l-.283-.071c-.5.425-1.558-.283-1.629.638a6.279,6.279,0,0,0,.779,2.2,3.7,3.7,0,0,0,1.133-.425c.071-.5-.425-.708-.283-1.133.425-.071.638.5.992.708.213-.071.5-.213.567-.425C41.5,66.75,41.009,66.538,40.513,65.971Z" transform="translate(-11.256 -19.218)"/></g></svg>